<svg xmlns="http://www.w3.org/2000/svg" version="1.1" width="466px" height="832px" viewBox="320 9 466 832" style="shape-rendering:geometricPrecision; text-rendering:geometricPrecision; image-rendering:optimizeQuality; fill-rule:evenodd; clip-rule:evenodd" xmlns:xlink="http://www.w3.org/1999/xlink">
<g stroke="#0a0908" stroke-width="1" stroke-linejoin="round">

  <!-- contour/base -->
  <path fill="#7a3308" d="M 582.5,9.5 C 622.027,64.1751 660.861,119.508 699,175.5C 699.333,190.5 699.667,205.5 700,220.5C 728.333,268.5 756.667,316.5 785,364.5C 785.667,420.5 785.667,476.5 785,532.5C 757.728,587.377 730.728,642.377 704,697.5C 646.312,745.355 588.479,793.022 530.5,840.5C 473.147,767.802 415.314,695.468 357,623.5C 345.067,538.468 332.9,453.468 320.5,368.5C 320.577,366.701 321.077,365.034 322,363.5C 370,277.5 418,191.5 466,105.5C 505.314,74.0133 544.147,42.0133 582.5,9.5 Z"/>

  <!-- upper facet, the brightest -->
  <path fill="#e8853a" d="M 577.5,32.5 C 578.497,32.4701 579.164,32.9701 579.5,34C 587,57.1667 594.5,80.3333 602,103.5C 600.621,124.914 598.287,146.247 595,167.5C 552.585,239.998 509.919,312.331 467,384.5C 470.058,294.489 473.725,204.489 478,114.5C 511.356,87.3024 544.523,59.9691 577.5,32.5 Z"/>

  <!-- upper right, small -->
  <path fill="#d97a2e" d="M 605.5,66.5 C 632.136,103.082 658.303,140.082 684,177.5C 685.116,182.558 685.616,187.725 685.5,193C 685.487,197.747 685.153,202.414 684.5,207C 660.023,193.752 635.69,179.919 611.5,165.5C 611.167,164 610.833,162.5 610.5,161C 612.5,142.999 614.5,124.999 616.5,107C 613.343,93.3633 609.677,79.8633 605.5,66.5 Z"/>

  <!-- left middle -->
  <path fill="#cf6620" d="M 461.5,142.5 C 458.66,231.001 455.16,319.668 451,408.5C 429.604,417.693 407.937,426.36 386,434.5C 376.786,423.109 367.786,411.442 359,399.5C 351.485,388.656 343.985,377.823 336.5,367C 378.045,292.075 419.712,217.241 461.5,142.5 Z"/>

  <!-- right middle -->
  <path fill="#c25f16" d="M 614.5,184.5 C 639.355,198.179 663.855,212.513 688,227.5C 714.333,272.167 740.667,316.833 767,361.5C 768.301,363.402 768.968,365.402 769,367.5C 756.138,380.696 742.971,393.53 729.5,406C 709.508,405.075 689.675,402.908 670,399.5C 651.026,327.936 632.526,256.27 614.5,184.5 Z"/>

  <!-- central, the largest -->
  <path fill="#b3540f" d="M 598.5,188.5 C 599.75,188.577 600.583,189.244 601,190.5C 619.807,261.755 638.307,333.089 656.5,404.5C 648.343,418.845 639.51,432.845 630,446.5C 597.333,494.5 564.667,542.5 532,590.5C 509.828,531.983 487.662,473.483 465.5,415C 510.235,339.692 554.568,264.192 598.5,188.5 Z"/>

  <!-- small right -->
  <path fill="#8f4008" d="M 769.5,386.5 C 770.833,403.487 771.5,420.82 771.5,438.5C 771.333,455.833 771.167,473.167 771,490.5C 760.224,465.949 749.724,441.282 739.5,416.5C 749.827,406.839 759.827,396.839 769.5,386.5 Z"/>

  <!-- small left -->
  <path fill="#96460b" d="M 339.5,397.5 C 352.34,413.33 364.34,429.83 375.5,447C 371.334,483.825 367.168,520.658 363,557.5C 354.292,504.377 346.458,451.044 339.5,397.5 Z"/>

  <!-- lower right, large -->
  <path fill="#a14f0d" d="M 668.5,414.5 C 687.419,416.917 706.419,419.084 725.5,421C 740.881,455.802 755.881,490.802 770.5,526C 697.128,589.707 623.461,653.041 549.5,716C 547.956,717.187 546.289,717.52 544.5,717C 527.626,699.959 510.626,683.125 493.5,666.5C 507.142,648.357 520.975,630.357 535,612.5C 579.262,546.299 623.762,480.299 668.5,414.5 Z"/>

  <!-- lower left, large -->
  <path fill="#943f0a" d="M 450.5,424.5 C 452.451,424.227 453.951,424.893 455,426.5C 477.367,485.936 499.534,545.436 521.5,605C 509.104,623.605 495.604,641.438 481,658.5C 445.167,644.333 409.333,630.167 373.5,616C 372.376,615.161 371.709,613.994 371.5,612.5C 377.443,558.514 383.276,504.514 389,450.5C 389.374,449.584 389.874,448.75 390.5,448C 410.7,440.389 430.7,432.556 450.5,424.5 Z"/>

  <!-- bottom right, the darkest -->
  <path fill="#612808" d="M 754.5,558.5 C 755.239,558.369 755.906,558.536 756.5,559C 735.539,601.757 714.705,644.59 694,687.5C 643.517,729.406 592.851,771.072 542,812.5C 545.098,785.476 548.765,758.476 553,731.5C 620.518,674.171 687.684,616.504 754.5,558.5 Z"/>

  <!-- bottom left, the darkest -->
  <path fill="#6e2f09" d="M 387.5,638.5 C 387.735,637.903 388.235,637.57 389,637.5C 419.167,649.333 449.333,661.167 479.5,673C 499.305,691.805 518.805,710.971 538,730.5C 535.058,757.594 531.225,784.594 526.5,811.5C 479.764,754.103 433.43,696.437 387.5,638.5 Z"/>

</g>
</svg>